<?xml version="1.0" encoding="UTF-8" standalone="no"?>
<!-- Created with Inkscape (http://www.inkscape.org/) -->

<svg
   xmlns:dc="http://purl.org/dc/elements/1.1/"
   xmlns:cc="http://creativecommons.org/ns#"
   xmlns:rdf="http://www.w3.org/1999/02/22-rdf-syntax-ns#"
   xmlns:svg="http://www.w3.org/2000/svg"
   xmlns="http://www.w3.org/2000/svg"
   xmlns:sodipodi="http://sodipodi.sourceforge.net/DTD/sodipodi-0.dtd"
   xmlns:inkscape="http://www.inkscape.org/namespaces/inkscape"
   width="640"
   height="480"
   id="svg2999"
   version="1.1"
   inkscape:version="0.48.2 r9819"
   sodipodi:docname="map.svg">
  <defs
     id="defs3001" />
  <sodipodi:namedview
     id="base"
     pagecolor="#ffffff"
     bordercolor="#666666"
     borderopacity="1.0"
     inkscape:pageopacity="0.0"
     inkscape:pageshadow="2"
     inkscape:zoom="1.1767152"
     inkscape:cx="370.50326"
     inkscape:cy="238.20133"
     inkscape:document-units="px"
     inkscape:current-layer="layer4"
     showgrid="true"
     inkscape:window-width="1440"
     inkscape:window-height="784"
     inkscape:window-x="0"
     inkscape:window-y="0"
     inkscape:window-maximized="1">
    <inkscape:grid
       type="xygrid"
       id="grid3007"
       empspacing="5"
       visible="true"
       enabled="true"
       snapvisiblegridlinesonly="true" />
  </sodipodi:namedview>
  <metadata
     id="metadata3004">
    <rdf:RDF>
      <cc:Work
         rdf:about="">
        <dc:format>image/svg+xml</dc:format>
        <dc:type
           rdf:resource="http://purl.org/dc/dcmitype/StillImage" />
        <dc:title></dc:title>
      </cc:Work>
    </rdf:RDF>
  </metadata>
  <g
     inkscape:label="Floor"
     inkscape:groupmode="layer"
     id="layer1"
     transform="translate(0,-572.36218)">
    <rect
       style="fill:#b3b3b3"
       id="rect3009"
       width="640"
       height="480"
       x="0"
       y="0"
       transform="translate(0,572.36218)" />
  </g>
  <g
     inkscape:groupmode="layer"
     id="layer4"
     inkscape:label="Walls">
    <path
       style="fill:#333333;stroke:#000000;stroke-width:1px;stroke-linecap:butt;stroke-linejoin:miter;stroke-opacity:1"
       d="M 260 80 L 260 100 L 380 100 L 380 290 L 260 290 L 260 310 L 260 350 L 50 350 L 50 440 L 290 440 L 290 430 L 60 430 L 60 360 L 270 360 L 270 320 L 390 320 L 390 430 L 330 430 L 330 440 L 400 440 L 400 330 L 470 330 L 470 320 L 400 320 L 400 310 L 400 190 L 470 190 L 530 190 L 530 180 L 480 180 L 480 100 L 470 100 L 470 170 L 400 170 L 400 80 L 260 80 z "
       id="path3016" />
    <path
       style="fill:#333333;stroke:#000000;stroke-width:1px;stroke-linecap:butt;stroke-linejoin:miter;stroke-opacity:1;fill-opacity:1"
       d="M 0 0 L 0 210 L 10 210 L 10 10 L 470 10 L 470 70 L 480 70 L 480 10 L 630 10 L 630 180 L 570 180 L 570 190 L 630 190 L 630 320 L 510 320 L 510 330 L 630 330 L 640 329.59375 L 640 190 L 640 0 L 0 0 z M 90 80 L 90 280 L 0 280 L 0 310 L 0 480 L 640 480 L 640 371.21875 L 630 370 L 440 370 L 440 410 L 450 410 L 450 380 L 630 380 L 630 470 L 450 470 L 450 440 L 440 440 L 440 470 L 10 470 L 10 310 L 120 310 L 220 310 L 220 290 L 120 290 L 120 100 L 220 100 L 220 80 L 90 80 z "
       id="path3793" />
  </g>
  <g
     inkscape:groupmode="layer"
     id="layer5"
     inkscape:label="door">
    <rect
       style="fill:#800000;fill-opacity:1;stroke:#333333;stroke-opacity:1"
       id="rect3881"
       width="40"
       height="20"
       x="220"
       y="290" />
  </g>
</svg>
